<svg xmlns="http://www.w3.org/2000/svg" style="display: none;">
  <symbol id="icon-vk" viewBox="0 0 20 20">
    <path d="M10 0C4.477 0 0 4.477 0 10s4.477 10 10 10 10-4.477 10-10S15.523 0 10 0zm4.402 13.034h-2.333V18H8.731v-4.966H7.268v-2.708h1.463V8.58c0-2.318 1.415-3.58 3.482-3.58.696 0 1.394.036 2.09.107v2.434h-1.434c-1.124 0-1.342.535-1.342 1.319v1.996h2.682l-.349 2.708z"/>
  </symbol>
  <symbol id="icon-instagram" viewBox="0 0 20 20">
    <path d="M10 5a5 5 0 1 0 0 10 5 5 0 0 0 0-10zm6.5-1.25a1.25 1.25 0 1 1-2.5 0 1.25 1.25 0 0 1 2.5 0zM10 7a3 3 0 1 1 0 6 3 3 0 0 1 0-6z"/>
    <path d="M10 0c2.717 0 3.056.01 4.122.06.637.05 1.363.218 2.428.465.66.254 1.216.598 1.772 1.153.509.5.902 1.105 1.153 1.772.247.637.415 1.363.465 2.428.047 1.066.06 1.405.06 4.122s-.01 3.056-.06 4.122-.218 1.79-.465 2.428a4.9 4.9 0 0 1-1.153 1.772c-.5.508-1.105.902-1.772 1.153-.637.247-1.363.415-2.428.465-1.066.047-1.405.06-4.122.06s-3.056-.01-4.122-.06-1.79-.218-2.428-.465a4.9 4.9 0 0 1-1.772-1.153A4.9 4.9 0 0 1 .525 16.55C.277 15.913.11 15.187.06 14.122.013 13.056 0 12.717 0 10s.01-3.056.06-4.122.217-1.79.465-2.428A4.9 4.9 0 0 1 3.45.525C4.088.277 4.812.11 5.878.06 6.944.013 7.283 0 10 0z"/>
  </symbol>
  <symbol id="icon-facebook" viewBox="0 0 20 16">
    <path d="M19.543 2.498C20 4.28 20 8 20 8s0 3.72-.457 5.502c-.254.985-.997 1.76-1.938 2.022C15.896 16 10 16 10 16s-5.893 0-7.605-.476c-.945-.266-1.687-1.04-1.938-2.022C0 11.72 0 8 0 8s0-3.72.457-5.502c.254-.985.997-1.76 1.938-2.022C4.107 0 10 0 10 0s5.896 0 7.605.476c.945.266 1.687 1.04 1.938 2.022M8 11.5 14 8 8 4.5z"/>
  </symbol>
</svg>